HIERARCHY
ROOT Hips
{
	OFFSET -0.179506 -22.333345 2.821913
	CHANNELS 6 Xposition Yposition Zposition Zrotation Yrotation Xrotation 
	JOINT LeftUpLeg
	{
		OFFSET 6.951974 -9.140623 -0.681533
		CHANNELS 3 Zrotation Yrotation Xrotation
		JOINT LeftLeg
		{
			OFFSET 3.427654 -37.519855 -0.449580
			CHANNELS 3 Zrotation Yrotation Xrotation
			JOINT LeftFoot
			{
				OFFSET -1.359570 -39.796059 -4.369333
				CHANNELS 3 Zrotation Yrotation Xrotation
				JOINT LeftToe
				{
					OFFSET 2.635814 -5.579078 11.928840
					CHANNELS 3 Zrotation Yrotation Xrotation
					End Site
					{
						OFFSET 0.000000 0.000000 0.000000
					}
				}
			}
		}
	}
	JOINT RightUpLeg
	{
		OFFSET -6.767048 -9.052170 -0.431982
		CHANNELS 3 Zrotation Yrotation Xrotation
		JOINT RightLeg
		{
			OFFSET -3.829005 -38.256897 -0.885003
			CHANNELS 3 Zrotation Yrotation Xrotation
			JOINT RightFoot
			{
				OFFSET 1.577377 -39.841461 -4.231180
				CHANNELS 3 Zrotation Yrotation Xrotation
				JOINT RightToe
				{
					OFFSET -2.537174 -4.814398 12.334795
					CHANNELS 3 Zrotation Yrotation Xrotation
					End Site
					{
						OFFSET 0.000000 0.000000 0.000000
					}
				}
			}
		}
	}
	JOINT Spine
	{
		OFFSET -0.253288 10.896323 -2.669631
		CHANNELS 3 Zrotation Yrotation Xrotation
		JOINT Spine1
		{
			OFFSET 0.548704 13.518043 0.109247
			CHANNELS 3 Zrotation Yrotation Xrotation
			JOINT Spine2
			{
				OFFSET 0.145701 5.292222 2.542457
				CHANNELS 3 Zrotation Yrotation Xrotation
				JOINT Neck
				{
					OFFSET -0.277840 21.387037 -4.285703
					CHANNELS 3 Zrotation Yrotation Xrotation
					JOINT Head
					{
						OFFSET 0.515184 6.496960 5.134897
						CHANNELS 3 Zrotation Yrotation Xrotation
						End Site
						{
							OFFSET 0.000000 0.000000 0.000000
						}
					}
				}
				JOINT LeftShoulder
				{
					OFFSET 7.884473 12.174932 -3.408961
					CHANNELS 3 Zrotation Yrotation Xrotation
					JOINT LeftArm
					{
						OFFSET 9.097692 3.046888 -0.886815
						CHANNELS 3 Zrotation Yrotation Xrotation
						JOINT LeftForeArm
						{
							OFFSET 25.961220 -1.277207 -2.745643
							CHANNELS 3 Zrotation Yrotation Xrotation
							JOINT LeftHand
							{
								OFFSET 24.923361 0.898606 -0.117091
								CHANNELS 3 Zrotation Yrotation Xrotation
								End Site
								{
									OFFSET 0.000000 0.000000 0.000000
								}
							}
						}
					}
				}
				JOINT RightShoulder
				{
					OFFSET -8.175920 11.883285 -3.861528
					CHANNELS 3 Zrotation Yrotation Xrotation
					JOINT RightArm
					{
						OFFSET -9.601238 3.255117 -0.914307
						CHANNELS 3 Zrotation Yrotation Xrotation
						JOINT RightForeArm
						{
							OFFSET -25.374195 -1.332924 -2.140099
							CHANNELS 3 Zrotation Yrotation Xrotation
							JOINT RightHand
							{
								OFFSET -25.529810 0.777228 -0.555919
								CHANNELS 3 Zrotation Yrotation Xrotation
								End Site
								{
									OFFSET 0.000000 0.000000 0.000000
								}
							}
						}
					}
				}
			}
		}
	}
}
MOTION
Frames: 9
Frame Time: 0.033333
-31.686592 17.617611 98.797150 -178.479840 0.510947 98.864266 0.455467 2.140731 -3.951492 7.469162 -14.362746 -15.201642 -6.099602 13.743991 4.720883 nan nan nan 4.654364 -3.569071 -3.251997 -1.509132 8.844554 -16.988713 9.517936 -21.963900 3.901064 nan nan nan -1.992144 2.304734 2.262789 0.813620 -6.144354 -10.511704 4.653583 4.236797 -2.785622 -11.723738 -5.039924 -3.827576 20.491084 -0.319756 -28.941987 38.843149 -25.899497 -25.982591 26.563535 -25.277193 -44.197709 -2.347677 -6.033306 -49.031466 -9.487672 -8.206240 -69.337484 -42.051381 21.092342 -23.786124 -21.549555 21.390898 -53.650696 -3.503843 8.567222 -35.994104 23.834734 -5.156545 -38.884088 
-31.670900 17.471704 98.775307 -178.456220 0.491445 98.877290 0.441158 2.067058 -4.122480 7.410113 -14.299283 -15.049135 -6.061328 13.749890 4.694741 nan nan nan 4.614419 -3.560965 -3.365978 -1.420778 8.692404 -16.931937 9.491724 -21.983783 3.802560 nan nan nan -1.996916 2.296627 2.556681 0.825923 -6.105437 -10.661474 4.647078 4.216348 -2.727771 -11.632644 -5.103430 -3.953127 20.430728 -0.291948 -28.688000 38.590218 -25.561076 -25.765427 26.275337 -25.565554 -44.013567 -1.675945 -6.747793 -49.077264 -9.610199 -7.973797 -69.619434 -41.635178 20.933761 -23.495035 -21.697393 21.380965 -53.620305 -3.633866 9.156856 -36.283624 23.905310 -5.154489 -39.348532 
-31.644670 17.336403 98.740997 -178.524187 0.551006 98.881596 0.512628 2.113810 -4.216469 7.359201 -14.269167 -14.997121 -6.079185 13.830552 4.678532 nan nan nan 4.633249 -3.492582 -3.504145 -1.297202 8.682185 -16.793720 9.520392 -21.985400 3.730334 nan nan nan -2.022280 2.275482 2.836813 0.899608 -6.057187 -10.757097 4.755601 4.269868 -2.695523 -11.508796 -5.131260 -4.137622 20.320206 -0.293616 -28.365477 38.191593 -25.640854 -25.483046 26.342331 -25.319357 -43.798533 -1.407542 -7.506163 -49.241601 -9.588730 -8.023327 -69.860951 -41.364273 21.169907 -23.133230 -22.037175 20.896289 -53.488699 -3.592437 9.626352 -36.508366 23.878320 -4.994958 -39.563508 
-31.615009 17.228243 98.704529 -178.573782 0.572749 98.904688 0.528893 2.172522 -4.302513 7.351172 -14.230710 -15.018631 -6.116912 13.918967 4.735190 nan nan nan 4.654604 -3.428930 -3.603812 -1.255702 8.682718 -16.776744 9.547485 -22.020642 3.776494 nan nan nan -1.970152 2.241090 3.016233 0.954691 -6.028558 -10.939968 4.745182 4.182205 -2.496200 -11.403800 -5.277099 -4.093256 20.234433 -0.102440 -28.224690 37.712040 -25.793913 -24.863061 26.323795 -24.734699 -43.317438 -0.972154 -8.748005 -49.231119 -9.119579 -8.071398 -70.628586 -41.199508 21.006769 -23.352586 -21.993904 21.273072 -53.334405 -3.605402 9.849538 -36.627703 23.446897 -4.864460 -39.892916 
-31.588949 17.125881 98.678734 -178.509336 0.554937 98.967112 0.551754 2.176330 -4.481751 7.292311 -14.234663 -14.987659 -6.089395 13.857578 4.847965 nan nan nan 4.634733 -3.398496 -3.729735 -1.193182 8.580668 -16.787989 9.354322 -22.044552 3.822539 nan nan nan -1.936108 2.215242 3.150365 1.038385 -6.004914 -11.045406 4.714416 3.977570 -2.439865 -11.393885 -5.440441 -3.834873 20.115026 0.129307 -28.033541 37.328858 -25.805208 -23.982503 25.894578 -24.121240 -42.795506 -0.179739 -10.263841 -49.173487 -8.678615 -8.077973 -71.821233 -41.034859 20.606481 -23.455339 -21.656635 21.940316 -53.410005 -3.858905 10.372124 -36.762139 22.927837 -4.826257 -40.121458 
-31.562912 17.019466 98.637871 -178.452149 0.548073 98.932628 0.592500 2.183263 -4.544701 7.238249 -14.345773 -14.960540 -6.021282 13.819663 4.905708 nan nan nan 4.617408 -3.397078 -3.778207 -1.135352 8.588637 -16.721580 9.184113 -22.073872 3.841195 nan nan nan -1.926462 2.200181 3.428141 1.128743 -6.015206 -11.141847 4.759598 3.888362 -2.394331 -11.429754 -5.721399 -3.728214 19.918685 0.341610 -27.653490 36.870337 -25.826064 -23.544158 25.652250 -23.776773 -42.413717 0.351259 -11.409907 -49.468609 -8.365444 -7.685825 -72.400455 -40.704865 20.462515 -23.579362 -21.645756 22.285270 -53.420764 -3.949581 10.961761 -36.933861 22.668542 -4.924154 -39.942374 
-31.546051 16.891491 98.590775 -178.408530 0.559820 98.952061 0.644040 2.166874 -4.701702 7.133616 -14.351402 -14.861593 -5.944388 13.786562 4.916968 nan nan nan 4.617964 -3.380494 -3.864878 -1.076588 8.550271 -16.698272 9.178630 -22.021469 3.861254 nan nan nan -1.813309 2.171582 3.633683 1.130619 -6.069390 -11.207326 4.703181 3.851352 -2.378133 -11.333775 -5.856450 -3.646548 19.805234 0.482829 -27.211125 36.410912 -25.655678 -23.425217 25.551684 -23.991221 -42.187255 0.728574 -12.035086 -49.746010 -8.318245 -7.483914 -72.197282 -40.293036 20.282506 -23.634548 -21.556643 22.751535 -53.269717 -4.266790 11.451763 -37.070696 22.856980 -4.873054 -39.840712 
-31.528046 16.741245 98.537811 -178.399451 0.559108 99.063653 0.656374 2.131748 -4.989149 7.054481 -14.231510 -14.695683 -5.871864 13.707203 4.955197 nan nan nan 4.611724 -3.337673 -4.061266 -1.021259 8.411967 -16.706912 9.152648 -21.979483 3.934542 nan nan nan -1.752710 2.166873 3.693074 1.172150 -6.110178 -11.126297 4.630252 3.749522 -2.482298 -11.266298 -5.873505 -3.452113 19.762786 0.560709 -26.841894 35.978724 -25.447104 -23.224416 25.382765 -24.122090 -41.994526 1.061128 -12.770290 -50.010771 -8.266617 -7.567133 -72.097778 -39.783009 20.232748 -23.399635 -21.728846 23.072234 -53.267314 -4.541945 11.888198 -37.329349 22.813802 -4.653109 -39.672806 
-31.491480 16.597168 98.500122 -178.404637 0.534370 99.162158 0.649583 2.074688 -5.261881 6.990690 -14.041004 -14.508980 -5.800050 13.591476 4.989867 nan nan nan 4.600614 -3.266550 -4.251943 -1.001724 8.252441 -16.673712 9.178900 -21.931642 3.938700 nan nan nan -1.811343 2.201012 3.738106 1.151742 -6.080997 -11.077154 4.598310 3.645886 -2.596240 -11.109534 -5.941870 -3.087272 19.775678 0.706155 -26.526323 35.634833 -25.016047 -23.341973 25.143671 -24.905533 -42.079380 1.324149 -13.180293 -50.169357 -8.220140 -7.595337 -71.891912 -39.333672 19.995512 -22.850719 -21.470700 23.270280 -53.384421 -4.959031 12.636524 -37.781586 22.663185 -4.413180 -40.078140 
